<?xml version="1.0" encoding="UTF-8" standalone="no"?>
<svg
   xmlns:dc="http://purl.org/dc/elements/1.1/"
   xmlns:cc="http://creativecommons.org/ns#"
   xmlns:rdf="http://www.w3.org/1999/02/22-rdf-syntax-ns#"
   xmlns:svg="http://www.w3.org/2000/svg"
   xmlns="http://www.w3.org/2000/svg"
   xmlns:sodipodi="http://sodipodi.sourceforge.net/DTD/sodipodi-0.dtd"
   xmlns:inkscape="http://www.inkscape.org/namespaces/inkscape"
   version="1.1"
   x="0px"
   y="0px"
   viewBox="0 0 68.391 105"
   enable-background="new 0 0 58.391 100"
   xml:space="preserve"
   id="svg3336"
   inkscape:version="0.91 r13725"
   sodipodi:docname="noun_2076.svg"
   width="68.390999"
   height="105"><metadata
     id="metadata3352"><rdf:RDF><cc:Work
         rdf:about=""><dc:format>image/svg+xml</dc:format><dc:type
           rdf:resource="http://purl.org/dc/dcmitype/StillImage" /><dc:title></dc:title></cc:Work></rdf:RDF></metadata><defs
     id="defs3350" /><sodipodi:namedview
     pagecolor="#ffffff"
     bordercolor="#666666"
     borderopacity="1"
     objecttolerance="10"
     gridtolerance="10"
     guidetolerance="10"
     inkscape:pageopacity="0"
     inkscape:pageshadow="2"
     inkscape:window-width="1920"
     inkscape:window-height="1147"
     id="namedview3348"
     showgrid="false"
     inkscape:zoom="6.9155043"
     inkscape:cx="6.6283003"
     inkscape:cy="40.428194"
     inkscape:window-x="3112"
     inkscape:window-y="129"
     inkscape:window-maximized="1"
     inkscape:current-layer="svg3336" /><circle
     cx="43.492886"
     cy="36.451958"
     r="4.1479998"
     id="circle3338"
     style="fill:#007800;fill-opacity:1" /><path
     d="m 50.646886,32.266961 c 11.393,-20.559 13.342,-28.7590002 12.247,-29.3910002 -1.091,-0.631 -7.217,5.15 -19.313,25.2820002 3.013,0.032 5.638,1.676 7.066,4.109 z"
     id="path3340"
     style="fill:#007800;fill-opacity:1;stroke:#007800;stroke-opacity:1"
     inkscape:connector-curvature="0" /><path
     d="m 35.195886,36.451961 c 0,-1.486 0.397,-2.879 1.083,-4.087 -23.448,0.415 -31.5069997,2.825 -31.5069997,4.087 0,1.261 8.0579997,3.672 31.5049997,4.086 -0.684,-1.207 -1.081,-2.599 -1.081,-4.086 z"
     id="path3342"
     style="fill:#007800;fill-opacity:1;stroke:#007800;stroke-opacity:1"
     inkscape:connector-curvature="0" /><path
     d="m 50.655886,40.624961 c -1.424,2.436 -4.046,4.083 -7.061,4.119 12.088,20.108 18.207,25.885 19.301,25.254 1.093,-0.632 -0.853,-8.827 -12.24,-29.373 z"
     id="path3344"
     style="fill:#007800;fill-opacity:1;stroke:#007800;stroke-opacity:1"
     inkscape:connector-curvature="0" /><path
     d="m 39.344886,45.719961 0,1.795 0,55.315999 8.297,0 0,-43.929999 c -2.38,-3.518 -5.125,-7.85 -8.297,-13.181 z"
     id="path3346"
     style="fill:#007800;fill-opacity:1;stroke:#007800;stroke-opacity:1"
     inkscape:connector-curvature="0" /></svg>