<svg xmlns="http://www.w3.org/2000/svg" version="1.1" viewBox="0 0 100 100" shape-rendering="geometricPrecision">
	<style>
		line, path {
			fill: none;
			stroke: black;
			stroke-width: 5;
		}
	</style>
	<g class="middle-bar">
		<line class="center-line" stroke="black" stroke-width="10" x1="50" y1="10" x2="50" y2="90" />
	</g>
	<g class="left-side">
		<line class="top-line" x1="5" y1="10" x2="30" y2="10" />
		<path class="bump1" d="M 30,10 A 10,10 0 1,1 30,30" />
		<path class="bump2" d="M 30,30 A 10,10 0 1,1 30,50" />
		<path class="bump3" d="M 30,50 A 10,10 0 1,1 30,70" />
		<path class="bump4" d="M 30,70 A 10,10 0 1,1 30,90" />
		<line class="bottom-line" x1="5" y1="90" x2="30" y2="90" />
	</g>
	<g class="right-side">
		<line class="top-line" x1="70" y1="10" x2="95" y2="10" />
		<path class="bump1" d="M 70,10 A 10,10 0 1,0 70,30" />
		<path class="bump2" d="M 70,30 A 10,10 0 1,0 70,50" />
		<path class="bump3" d="M 70,50 A 10,10 0 1,0 70,70" />
		<path class="bump4" d="M 70,70 A 10,10 0 1,0 70,90" />
		<line class="bottom-line" x1="70" y1="90" x2="95" y2="90" />
	</g>
</svg>